Coordinates
version=1
nRows=21
nColumns=27
inDegrees=yes

Units are S.I. units (second, meters, Newtons, ...)
If the header above contains a line with 'inDegrees', this indicates whether rotational values are in degrees (yes) or radians (no).

endheader
time	pelvis_rotation	pelvis_tilt	pelvis_list	pelvis_tx	pelvis_ty	pelvis_tz	hip_flexion_r	hip_adduction_r	hip_rotation_r	knee_angle_r	knee_rotation_r	knee_adduction_r	knee_angle_r_beta	ankle_angle_r	subtalar_angle_r	mtp_angle_r	hip_flexion_l	hip_adduction_l	hip_rotation_l	knee_angle_l	knee_rotation_l	knee_adduction_l	knee_angle_l_beta	ankle_angle_l	subtalar_angle_l	mtp_angle_l
      4.64000000	      6.83770580	    -36.35681949	      2.83788842	      0.03116070	      0.43506489	     -1.16446145	    138.03236698	    -48.07171632	     30.42996939	    110.78688181	      0.00000000	      9.93288667	      1.93359586	     13.91925605	      0.00000000	      0.00000000	    132.51398489	    -34.43841689	     19.52196569	    105.28654316	      0.00000000	     -9.94924744	      1.83759684	     11.15699003	      0.00000000	      0.00000000
      4.64500000	      6.87748967	    -36.37879389	      2.83861404	      0.03078219	      0.43541282	     -1.16448499	    137.99040739	    -48.06229331	     30.38211707	    110.74000648	      0.00000000	      9.93249340	      1.93277773	     13.88370913	      0.00000000	      0.00000000	    132.51183262	    -34.39482014	     19.45715109	    105.23114672	      0.00000000	     -9.94913069	      1.83662999	     11.10314297	      0.00000000	      0.00000000
      4.65000000	      6.93827521	    -36.38879278	      2.86315114	      0.03036182	      0.43581658	     -1.16452034	    137.95383771	    -48.05319978	     30.35978779	    110.68718182	      0.00000000	      9.93209462	      1.93185576	     13.87406021	      0.00000000	      0.00000000	    132.47625296	    -34.34370381	     19.35885779	    105.16390602	      0.00000000	     -9.94899954	      1.83545641	     11.01717753	      0.00000000	      0.00000000
      4.65500000	      7.03310651	    -36.47013291	      2.90873534	      0.02994864	      0.43627699	     -1.16456471	    138.01461063	    -48.06665028	     30.36707738	    110.62818600	      0.00000000	      9.93165030	      1.93082609	     13.81123009	      0.00000000	      0.00000000	    132.49508771	    -34.27261004	     19.23707942	    105.09423784	      0.00000000	     -9.94886222	      1.83424048	     10.95105085	      0.00000000	      0.00000000
      4.66000000	      7.12554741	    -36.49638338	      2.94645239	      0.02947670	      0.43683318	     -1.16460549	    137.97391814	    -48.07363960	     30.34225992	    110.55398233	      0.00000000	      9.93122034	      1.92953099	     13.81193342	      0.00000000	      0.00000000	    132.43864971	    -34.19361535	     19.09758918	    105.00621862	      0.00000000	     -9.94873117	      1.83270425	     10.86291317	      0.00000000	      0.00000000
      4.66500000	      7.19897693	    -36.58549225	      2.96783518	      0.02896896	      0.43745846	     -1.16465211	    137.98716371	    -48.07889442	     30.28528036	    110.47120501	      0.00000000	      9.93077935	      1.92808626	     13.71758570	      0.00000000	      0.00000000	    132.45691577	    -34.12845229	     18.98240625	    104.91106375	      0.00000000	     -9.94858583	      1.83104348	     10.77066708	      0.00000000	      0.00000000
      4.67000000	      7.27318248	    -36.63757758	      3.02310790	      0.02843796	      0.43811527	     -1.16466968	    137.96277200	    -48.04685688	     30.24849547	    110.38615932	      0.00000000	      9.93024138	      1.92660193	     13.72139959	      0.00000000	      0.00000000	    132.41455041	    -34.09113104	     18.82750561	    104.80767125	      0.00000000	     -9.94843180	      1.82923894	     10.66102788	      0.00000000	      0.00000000
      4.67500000	      7.35071284	    -36.69780407	      3.06323212	      0.02789009	      0.43885404	     -1.16471282	    137.93209409	    -48.03921819	     30.19073303	    110.28827112	      0.00000000	      9.92970014	      1.92489346	     13.67928187	      0.00000000	      0.00000000	    132.37428542	    -34.03710533	     18.67119803	    104.69463682	      0.00000000	     -9.94826043	      1.82726612	     10.55768130	      0.00000000	      0.00000000
      4.68000000	      7.44125536	    -36.77458580	      3.10638969	      0.02729760	      0.43965596	     -1.16476016	    137.90990101	    -48.03719955	     30.12657804	    110.18103184	      0.00000000	      9.92910864	      1.92302178	     13.63835993	      0.00000000	      0.00000000	    132.34196413	    -33.96334191	     18.51089518	    104.57196275	      0.00000000	     -9.94808131	      1.82512506	     10.45439165	      0.00000000	      0.00000000
      4.68500000	      7.54728716	    -36.85458336	      3.16010149	      0.02667609	      0.44052832	     -1.16479684	    137.88525105	    -48.03908769	     30.06401669	    110.06434154	      0.00000000	      9.92849865	      1.92098515	     13.60518329	      0.00000000	      0.00000000	    132.29501982	    -33.88527168	     18.32816422	    104.43462909	      0.00000000	     -9.94788089	      1.82272813	     10.33775801	      0.00000000	      0.00000000
      4.69000000	      7.63195930	    -36.94506171	      3.19316434	      0.02600866	      0.44145833	     -1.16488424	    137.85281911	    -48.04233232	     29.97109065	    109.93566642	      0.00000000	      9.92785654	      1.91873934	     13.51149784	      0.00000000	      0.00000000	    132.25683637	    -33.79434136	     18.16530590	    104.29868042	      0.00000000	     -9.94764497	      1.82035538	     10.24398707	      0.00000000	      0.00000000
      4.69500000	      7.69812317	    -37.00596786	      3.23976245	      0.02537205	      0.44245460	     -1.16493982	    137.77076719	    -48.01207964	     29.86860215	    109.80224691	      0.00000000	      9.92715791	      1.91641073	     13.47330981	      0.00000000	      0.00000000	    132.18108056	    -33.75399787	     17.98068724	    104.15311110	      0.00000000	     -9.94742116	      1.81781471	     10.13118220	      0.00000000	      0.00000000
      4.70000000	      7.83784728	    -37.10433947	      3.30698882	      0.02466395	      0.44350570	     -1.16502146	    137.75640811	    -48.03947679	     29.80371689	    109.66135340	      0.00000000	      9.92642789	      1.91395168	     13.44799341	      0.00000000	      0.00000000	    132.11752708	    -33.63140832	     17.76843111	    103.99020950	      0.00000000	     -9.94715373	      1.81497155	     10.00291798	      0.00000000	      0.00000000
      4.70500000	      7.89943220	    -37.18454143	      3.34766282	      0.02394804	      0.44463592	     -1.16508215	    137.65243469	    -48.00325119	     29.66375798	    109.50652862	      0.00000000	      9.92561783	      1.91124948	     13.39666915	      0.00000000	      0.00000000	    132.04218244	    -33.58375394	     17.57754640	    103.82464048	      0.00000000	     -9.94689492	      1.81208182	      9.86430980	      0.00000000	      0.00000000
      4.71000000	      7.98747237	    -37.27440425	      3.39283817	      0.02318194	      0.44583192	     -1.16516508	    137.57880204	    -47.99489005	     29.53684580	    109.34401075	      0.00000000	      9.92478854	      1.90841300	     13.32065678	      0.00000000	      0.00000000	    131.95413078	    -33.49570201	     17.37595193	    103.64785112	      0.00000000	     -9.94659149	      1.80899626	      9.78242176	      0.00000000	      0.00000000
      4.71500000	      8.10892373	    -37.37268780	      3.45350273	      0.02237634	      0.44705935	     -1.16524138	    137.52615394	    -48.01235539	     29.41730202	    109.17648758	      0.00000000	      9.92387141	      1.90548917	     13.27089141	      0.00000000	      0.00000000	    131.86944345	    -33.37800180	     17.15629382	    103.46292564	      0.00000000	     -9.94628198	      1.80576871	      9.66475533	      0.00000000	      0.00000000
      4.72000000	      8.18949096	    -37.50200612	      3.51647807	      0.02155310	      0.44837909	     -1.16536551	    137.46513498	    -47.97381495	     29.28821440	    108.99142460	      0.00000000	      9.92296483	      1.90225922	     13.21421835	      0.00000000	      0.00000000	    131.79452867	    -33.30335869	     16.93038154	    103.27117137	      0.00000000	     -9.94593478	      1.80242196	      9.56611348	      0.00000000	      0.00000000
      4.72500000	      8.30157854	    -37.60084410	      3.57230612	      0.02069635	      0.44976462	     -1.16545588	    137.37740605	    -47.97669521	     29.14559832	    108.80126059	      0.00000000	      9.92199956	      1.89894023	     13.15034250	      0.00000000	      0.00000000	    131.68593727	    -33.18738607	     16.69957882	    103.06010933	      0.00000000	     -9.94558169	      1.79873824	      9.41359266	      0.00000000	      0.00000000
      4.73000000	      8.37138318	    -37.70797474	      3.61525515	      0.01980495	      0.45119031	     -1.16553798	    137.26731064	    -47.94636335	     28.96751623	    108.60351151	      0.00000000	      9.92089015	      1.89548886	     13.06901303	      0.00000000	      0.00000000	    131.58927818	    -33.10716479	     16.48577708	    102.84785062	      0.00000000	     -9.94520597	      1.79503362	      9.28347350	      0.00000000	      0.00000000
      4.73500000	      8.47195200	    -37.81988125	      3.67734300	      0.01889080	      0.45266754	     -1.16563921	    137.18190860	    -47.93920772	     28.81087429	    108.39877202	      0.00000000	      9.91975967	      1.89191548	     12.99215229	      0.00000000	      0.00000000	    131.47877086	    -33.00298126	     16.24647260	    102.62724441	      0.00000000	     -9.94480297	      1.79118332	      9.15400057	      0.00000000	      0.00000000
      4.74000000	      8.63658824	    -37.98884684	      3.76211831	      0.01789497	      0.45418166	     -1.16574766	    137.18249903	    -47.97542594	     28.68598074	    108.18503965	      0.00000000	      9.91860185	      1.88818514	     12.91417986	      0.00000000	      0.00000000	    131.40937867	    -32.82802172	     15.99192440	    102.39135642	      0.00000000	     -9.94437925	      1.78706630	      9.02864075	      0.00000000	      0.00000000
